<svg width="572" height="681" viewBox="0 0 572 681" fill="none" xmlns="http://www.w3.org/2000/svg">
<g clip-path="url(#clip0_317_48)">
<path d="M128.546 509.531C78.52 551.598 27.8026 601.106 0 640.672V681.253H571.098V517.915C448.439 537.006 380.732 527.046 333.631 488.494C286.53 449.942 214.898 436.916 128.546 509.531Z" fill="white" fill-opacity="0.1"/>
<path d="M570.484 491.615C522.075 490.307 454.302 450.991 570.484 304.193V491.615Z" fill="white" fill-opacity="0.1"/>
<path d="M473.952 251.204C511.618 226.607 502.409 74.5763 489.652 0H1.96252C60.8386 6.86887 163.872 130.509 262.98 219.804C362.088 309.099 425.87 282.605 473.952 251.204Z" fill="white" fill-opacity="0.1"/>
<path d="M0 420.964C24.8588 395.124 59.6611 329.706 0 274.755V420.964Z" fill="white" fill-opacity="0.1"/>
</g>
<defs>
<clipPath id="clip0_317_48">
<rect width="571.098" height="681" fill="white"/>
</clipPath>
</defs>
</svg>
