<svg width="214" height="59" viewBox="0 0 214 59" fill="none" xmlns="http://www.w3.org/2000/svg">
<path d="M26 9.00293C14.5287 9.15007 5.27441 18.4938 5.27441 30C5.27441 41.5062 14.5287 50.8489 26 50.9961V59H0V0H26V9.00293Z" fill="white"/>
<path d="M26 51C31.5695 51 36.911 48.7875 40.8492 44.8492C44.7875 40.911 47 35.5695 47 30C47 24.4305 44.7875 19.089 40.8492 15.1508C36.911 11.2125 31.5695 9 26 9L26 30L26 51Z" fill="white"/>
<path d="M55.2784 22.3821V17.8182H76.7812V22.3821H68.7656V44H63.294V22.3821H55.2784ZM78.1811 44V24.3636H83.4609V27.7898H83.6655C84.0234 26.571 84.6243 25.6506 85.468 25.0284C86.3118 24.3977 87.2834 24.0824 88.3828 24.0824C88.6555 24.0824 88.9496 24.0994 89.2649 24.1335C89.5803 24.1676 89.8572 24.2145 90.0959 24.2741V29.1065C89.8402 29.0298 89.4865 28.9616 89.0348 28.902C88.5831 28.8423 88.1697 28.8125 87.7947 28.8125C86.9936 28.8125 86.2777 28.9872 85.647 29.3366C85.0249 29.6776 84.5305 30.1548 84.1641 30.7685C83.8061 31.3821 83.6271 32.0895 83.6271 32.8906V44H78.1811ZM100.946 44.3835C98.9265 44.3835 97.1879 43.9744 95.7305 43.1562C94.2816 42.3295 93.1651 41.1619 92.381 39.6534C91.5969 38.1364 91.2049 36.3423 91.2049 34.2713C91.2049 32.2514 91.5969 30.4787 92.381 28.9531C93.1651 27.4276 94.2688 26.2386 95.6921 25.3864C97.1239 24.5341 98.8029 24.108 100.729 24.108C102.025 24.108 103.23 24.3168 104.347 24.7344C105.472 25.1435 106.452 25.7614 107.287 26.5881C108.131 27.4148 108.787 28.4545 109.256 29.7074C109.725 30.9517 109.959 32.4091 109.959 34.0795V35.5753H93.3782V32.2003H104.833C104.833 31.4162 104.662 30.7216 104.321 30.1165C103.98 29.5114 103.507 29.0384 102.902 28.6974C102.306 28.348 101.611 28.1733 100.819 28.1733C99.9918 28.1733 99.2589 28.3651 98.6197 28.7486C97.989 29.1236 97.4947 29.6307 97.1367 30.2699C96.7788 30.9006 96.5955 31.6037 96.587 32.3793V35.5881C96.587 36.5597 96.766 37.3991 97.1239 38.1065C97.4904 38.8139 98.006 39.3594 98.6708 39.7429C99.3356 40.1264 100.124 40.3182 101.036 40.3182C101.641 40.3182 102.195 40.233 102.698 40.0625C103.201 39.892 103.631 39.6364 103.989 39.2955C104.347 38.9545 104.62 38.5369 104.807 38.0426L109.844 38.375C109.588 39.5852 109.064 40.642 108.272 41.5455C107.488 42.4403 106.473 43.1392 105.229 43.642C103.993 44.1364 102.566 44.3835 100.946 44.3835ZM118.959 32.6477V44H113.513V24.3636H118.703V27.8281H118.934C119.368 26.6861 120.097 25.7827 121.12 25.1179C122.142 24.4446 123.382 24.108 124.84 24.108C126.203 24.108 127.392 24.4062 128.407 25.0028C129.421 25.5994 130.209 26.4517 130.772 27.5597C131.334 28.6591 131.615 29.9716 131.615 31.4972V44H126.169V32.4688C126.178 31.267 125.871 30.3295 125.249 29.6562C124.627 28.9744 123.77 28.6335 122.679 28.6335C121.946 28.6335 121.299 28.7912 120.736 29.1065C120.182 29.4219 119.748 29.8821 119.432 30.4872C119.125 31.0838 118.968 31.804 118.959 32.6477ZM143.143 44.3196C141.652 44.3196 140.301 43.9361 139.091 43.169C137.889 42.3935 136.935 41.2557 136.227 39.7557C135.528 38.2472 135.179 36.3977 135.179 34.2074C135.179 31.9574 135.541 30.0866 136.266 28.5952C136.99 27.0952 137.953 25.9744 139.155 25.233C140.365 24.483 141.69 24.108 143.131 24.108C144.23 24.108 145.146 24.2955 145.879 24.6705C146.621 25.0369 147.217 25.4972 147.669 26.0511C148.129 26.5966 148.479 27.1335 148.717 27.6619H148.884V17.8182H154.317V44H148.947V40.8551H148.717C148.462 41.4006 148.099 41.9418 147.631 42.4787C147.17 43.0071 146.57 43.446 145.828 43.7955C145.095 44.1449 144.2 44.3196 143.143 44.3196ZM144.869 39.9858C145.747 39.9858 146.489 39.7472 147.094 39.2699C147.707 38.7841 148.176 38.1065 148.5 37.2372C148.832 36.3679 148.999 35.3494 148.999 34.1818C148.999 33.0142 148.837 32 148.513 31.1392C148.189 30.2784 147.72 29.6136 147.107 29.1449C146.493 28.6761 145.747 28.4418 144.869 28.4418C143.974 28.4418 143.22 28.6847 142.607 29.1705C141.993 29.6562 141.528 30.3295 141.213 31.1903C140.898 32.0511 140.74 33.0483 140.74 34.1818C140.74 35.3239 140.898 36.3338 141.213 37.2116C141.537 38.081 142.001 38.7628 142.607 39.2571C143.22 39.7429 143.974 39.9858 144.869 39.9858ZM167.667 44.3835C165.681 44.3835 163.963 43.9616 162.515 43.1179C161.074 42.2656 159.962 41.081 159.178 39.5639C158.394 38.0384 158.002 36.2699 158.002 34.2585C158.002 32.2301 158.394 30.4574 159.178 28.9403C159.962 27.4148 161.074 26.2301 162.515 25.3864C163.963 24.5341 165.681 24.108 167.667 24.108C169.652 24.108 171.365 24.5341 172.806 25.3864C174.255 26.2301 175.371 27.4148 176.155 28.9403C176.939 30.4574 177.331 32.2301 177.331 34.2585C177.331 36.2699 176.939 38.0384 176.155 39.5639C175.371 41.081 174.255 42.2656 172.806 43.1179C171.365 43.9616 169.652 44.3835 167.667 44.3835ZM167.692 40.1648C168.596 40.1648 169.35 39.9091 169.955 39.3977C170.56 38.8778 171.016 38.1705 171.323 37.2756C171.638 36.3807 171.796 35.3622 171.796 34.2202C171.796 33.0781 171.638 32.0597 171.323 31.1648C171.016 30.2699 170.56 29.5625 169.955 29.0426C169.35 28.5227 168.596 28.2628 167.692 28.2628C166.78 28.2628 166.013 28.5227 165.391 29.0426C164.777 29.5625 164.313 30.2699 163.998 31.1648C163.691 32.0597 163.537 33.0781 163.537 34.2202C163.537 35.3622 163.691 36.3807 163.998 37.2756C164.313 38.1705 164.777 38.8778 165.391 39.3977C166.013 39.9091 166.78 40.1648 167.692 40.1648ZM180.873 44V24.3636H186.152V27.7898H186.357C186.715 26.571 187.316 25.6506 188.159 25.0284C189.003 24.3977 189.975 24.0824 191.074 24.0824C191.347 24.0824 191.641 24.0994 191.956 24.1335C192.272 24.1676 192.549 24.2145 192.787 24.2741V29.1065C192.532 29.0298 192.178 28.9616 191.726 28.902C191.275 28.8423 190.861 28.8125 190.486 28.8125C189.685 28.8125 188.969 28.9872 188.338 29.3366C187.716 29.6776 187.222 30.1548 186.855 30.7685C186.498 31.3821 186.319 32.0895 186.319 32.8906V44H180.873ZM200.64 44.3707C199.387 44.3707 198.271 44.1534 197.29 43.7188C196.31 43.2756 195.535 42.6236 194.964 41.7628C194.401 40.8935 194.12 39.8111 194.12 38.5156C194.12 37.4247 194.32 36.5085 194.721 35.767C195.121 35.0256 195.667 34.429 196.357 33.9773C197.048 33.5256 197.832 33.1847 198.71 32.9545C199.596 32.7244 200.525 32.5625 201.496 32.4688C202.638 32.3494 203.559 32.2386 204.258 32.1364C204.957 32.0256 205.464 31.8636 205.779 31.6506C206.094 31.4375 206.252 31.1222 206.252 30.7045V30.6278C206.252 29.8182 205.996 29.1918 205.485 28.7486C204.982 28.3054 204.266 28.0838 203.337 28.0838C202.357 28.0838 201.577 28.3011 200.998 28.7358C200.418 29.1619 200.035 29.6989 199.847 30.3466L194.81 29.9375C195.066 28.7443 195.569 27.7131 196.319 26.8438C197.069 25.9659 198.036 25.2926 199.221 24.8239C200.414 24.3466 201.795 24.108 203.363 24.108C204.454 24.108 205.498 24.2358 206.495 24.4915C207.501 24.7472 208.391 25.1435 209.167 25.6804C209.951 26.2173 210.569 26.9077 211.021 27.7514C211.472 28.5866 211.698 29.5881 211.698 30.7557V44H206.533V41.277H206.38C206.065 41.8906 205.643 42.4318 205.114 42.9006C204.586 43.3608 203.951 43.723 203.21 43.9872C202.468 44.2429 201.612 44.3707 200.64 44.3707ZM202.2 40.6122C203.001 40.6122 203.708 40.4545 204.322 40.1392C204.935 39.8153 205.417 39.3807 205.766 38.8352C206.116 38.2898 206.29 37.6719 206.29 36.9815V34.8977C206.12 35.0085 205.886 35.1108 205.587 35.2045C205.298 35.2898 204.969 35.3707 204.603 35.4474C204.237 35.5156 203.87 35.5795 203.504 35.6392C203.137 35.6903 202.805 35.7372 202.506 35.7798C201.867 35.8736 201.309 36.0227 200.832 36.2273C200.354 36.4318 199.984 36.7088 199.719 37.0582C199.455 37.3991 199.323 37.8253 199.323 38.3366C199.323 39.0781 199.592 39.6449 200.129 40.0369C200.674 40.4205 201.364 40.6122 202.2 40.6122Z" fill="white"/>
</svg>
